<svg width="40" height="40" viewBox="0 0 40 40" fill="none" xmlns="http://www.w3.org/2000/svg">
<path d="M19.5918 34.2857C22.498 34.2857 25.3389 33.4239 27.7553 31.8093C30.1717 30.1948 32.055 27.8999 33.1672 25.2149C34.2793 22.53 34.5703 19.5755 34.0034 16.7252C33.4364 13.8749 32.0369 11.2567 29.982 9.20169C27.927 7.14672 25.3088 5.74726 22.4585 5.18029C19.6081 4.61333 16.6537 4.90432 13.9687 6.01646C11.2838 7.12861 8.9889 9.01196 7.37431 11.4284C5.75973 13.8447 4.89795 16.6857 4.89795 19.5918C4.89795 22.0212 5.4857 24.3102 6.5306 26.3298L4.89795 34.2857L12.8539 32.6531C14.8718 33.6963 17.1641 34.2857 19.5918 34.2857Z" stroke="white" stroke-width="2" stroke-linecap="round" stroke-linejoin="round"/>
</svg>
